<?xml version="1.0" standalone="no"?>
<!DOCTYPE svg PUBLIC "-//W3C//DTD SVG 20010904//EN"
 "http://www.w3.org/TR/2001/REC-SVG-20010904/DTD/svg10.dtd">
<svg version="1.0" xmlns="http://www.w3.org/2000/svg"
 width="200.000000pt" height="100.000000pt" viewBox="0 0 200.000000 100.000000"
 preserveAspectRatio="xMidYMid meet">

<g transform="translate(0.000000,100.000000) scale(0.100000,-0.100000)"
fill="#000000" stroke="none">
<path d="M1871 533 c1 -32 4 -48 6 -35 4 19 11 22 54 22 l49 0 0 -45 0 -44
-55 -4 -55 -4 57 1 58 1 0 80 0 80 -57 3 -58 3 1 -58z m104 25 c-1 -20 -8 -23
-48 -26 -37 -2 -47 0 -47 12 0 10 9 16 25 16 14 0 25 5 25 10 0 6 10 10 23 10
18 0 23 -5 22 -22z"/>
<path d="M28 549 c-24 -13 -25 -84 -2 -93 9 -3 52 -5 97 -4 l82 2 -80 5 -80 6
-3 38 -3 37 80 0 c47 0 81 4 81 10 0 13 -150 13 -172 -1z"/>
<path d="M268 519 c-19 -24 -37 -48 -40 -54 -4 -6 25 -10 77 -10 93 0 93 -1
32 69 l-33 39 -36 -44z m62 -31 c0 -4 -16 -8 -35 -8 l-36 0 18 24 c17 22 19
23 36 9 9 -9 17 -20 17 -25z"/>
<path d="M402 509 l3 -54 80 -1 80 -1 -65 6 -65 6 -5 44 c-8 68 -32 67 -28 0z"/>
<path d="M588 549 c-21 -12 -24 -69 -6 -87 8 -8 42 -11 98 -10 l85 2 -80 5
-80 6 -3 38 -3 37 80 0 c47 0 81 4 81 10 0 13 -150 13 -172 -1z"/>
<path d="M777 553 c-12 -11 -8 -78 5 -91 7 -7 41 -12 83 -12 42 0 76 5 83 12
18 18 16 98 -2 98 -11 0 -16 -14 -18 -47 l-3 -48 -60 0 -60 0 -3 48 c-3 44
-10 56 -25 40z"/>
<path d="M977 553 c-12 -11 -8 -78 5 -91 8 -8 40 -11 88 -10 l75 2 -70 5 -70
6 -3 48 c-3 44 -10 56 -25 40z"/>
<path d="M1209 518 c-18 -24 -36 -47 -40 -53 -5 -6 24 -10 81 -10 l88 0 -45
52 c-25 29 -47 53 -48 53 -2 0 -18 -19 -36 -42z m56 -18 c18 -20 17 -20 -25
-20 -42 0 -43 0 -25 20 10 11 21 20 25 20 4 0 15 -9 25 -20z"/>
<path d="M1300 550 c0 -5 14 -10 30 -10 29 0 30 -2 30 -45 0 -33 4 -45 15 -45
11 0 15 12 15 45 0 43 1 45 30 45 17 0 30 5 30 10 0 6 -32 10 -75 10 -43 0
-75 -4 -75 -10z"/>
<path d="M1476 547 c-13 -9 -17 -23 -14 -52 l3 -40 78 -3 c50 -2 84 1 93 9 21
18 18 76 -5 89 -28 14 -134 13 -155 -3z m139 -47 l0 -35 -60 0 -60 0 -3 38 -3
38 63 -3 63 -3 0 -35z"/>
<path d="M1665 550 c-4 -6 20 -10 64 -10 56 0 71 -3 71 -15 0 -12 -13 -15 -58
-15 -32 0 -63 -5 -70 -12 -17 -17 -15 -48 3 -48 8 0 15 9 15 19 0 32 19 34 60
7 53 -35 87 -36 45 -1 l-30 24 28 1 c31 0 45 23 27 45 -14 17 -145 22 -155 5z"/>
</g>
</svg>
